<?xml version="1.0" encoding="utf-8"?><!-- Uploaded to: SVG Repo, www.svgrepo.com, Generator: SVG Repo Mixer Tools -->
<svg fill="#000000" width="800px" height="800px" viewBox="0 -4.29 100 100" xmlns="http://www.w3.org/2000/svg">
  <path id="_envelope-money" data-name="
envelope-money" d="M842.665,1009.33a12.929,12.929,0,0,0-1.489-.19c-5.513-.148-11.008-.669-16.533-.643-10.637.051-21.276-.017-31.915-.094-1.994-.014-3.988-.274-5.978-.468a3.721,3.721,0,0,1-2.934-2.66,25.979,25.979,0,0,1-.541-3.258c-.282-3.694-.936-7.355-.857-11.083.035-1.695-.336-3.393-.349-5.09-.049-5.722-.018-11.443-.018-17.163H782q0-9.033,0-18.064c0-.5.008-1,.041-1.5.04-.59.481-.955,1.014-.685a1.463,1.463,0,0,0,1.857-.272c2.538-2.122,5.123-4.19,7.716-6.244a2.062,2.062,0,0,0,.859-1.8c-.049-2.508-.086-5.016-.1-7.524-.012-2.258.581-2.878,2.758-3.038q7.938-.578,15.874-1.176a8.924,8.924,0,0,0,4.22-1.417c2.781-1.795,5.543-3.619,8.349-5.371,1.694-1.057,3.461-2,5.192-3a3.143,3.143,0,0,1,3.406.129,38.109,38.109,0,0,0,3.513,1.707,9.273,9.273,0,0,1,3.247,2.122,3.852,3.852,0,0,0,.909.781c2.269,1.284,4.536,2.572,6.842,3.784a5.087,5.087,0,0,0,2.006.5,19.613,19.613,0,0,0,3.308-.057,136.173,136.173,0,0,1,15.926-.6c.2,0,.4,0,.6-.01,2.7-.125,2.978,1.509,2.545,3.537a1.129,1.129,0,0,1-.235.545c-1.473,1.429-1.269,3.292-1.337,5.081-.045,1.2.019,2.413-.092,3.61a2.97,2.97,0,0,0,1.386,2.787c2.042,1.619,4.023,3.316,6,5.021a2.794,2.794,0,0,0,1.874.735c1.227.05,1.526.437,1.734,1.632a32.4,32.4,0,0,1,.5,5.944c-.078,7.325.042,14.654-.128,21.977-.1,4.509-.382,9.017-.3,13.53.023,1.3.212,2.592.288,3.888.111,1.878.6,3.76-.339,5.615a6.021,6.021,0,0,0-.175,2.073,17.7,17.7,0,0,1-.249,2.076,2.154,2.154,0,0,1-1.243,1.607,8.352,8.352,0,0,0-3.015,1.893,2.6,2.6,0,0,1-1.987.529,133.288,133.288,0,0,1-16.246-.178,35.228,35.228,0,0,0-8.675.427,27.154,27.154,0,0,1-3.884.291A23.007,23.007,0,0,1,842.665,1009.33Zm4.225-5.046a4.246,4.246,0,0,0,2.336.14c2.974-.436,5.978-1.024,8.98-.606a61.205,61.205,0,0,0,9.008.427,38.845,38.845,0,0,1,3.913.025c2.053.207,3.954-.5,5.921-.785a1.231,1.231,0,0,0,.64-1.72,1.572,1.572,0,0,0-.684-.523,14.715,14.715,0,0,1-4.881-2.915c-2.527-2.137-5.084-4.247-7.515-6.494-4.863-4.495-9.853-8.863-14.206-13.884-.656-.758-1.393-1.446-2.079-2.178a1.009,1.009,0,0,0-1.347-.189c-2.04,1.079-4.109,2.1-6.112,3.248-2.262,1.294-4.5,2.647-6.68,4.07a5.006,5.006,0,0,1-4.575.6,17.464,17.464,0,0,1-4.335-2.046q-2.888-1.9-5.8-3.785c-.589-.382-1.19-.75-1.8-1.087a1.165,1.165,0,0,0-1.4.169c-.672.6-1.3,1.25-1.964,1.866-2.859,2.676-5.665,5.412-8.6,8-2.786,2.451-5.771,4.676-8.563,7.12-2.339,2.047-4.538,4.255-6.773,6.419-.655.635-.448,1.252.405,1.508a2.673,2.673,0,0,0,3.02-.679c.815-.884,1.722-1.685,2.609-2.5a7.3,7.3,0,0,1,2.8-1.717.869.869,0,0,1,1.058.32,2.166,2.166,0,0,1,.247,1.119,1.574,1.574,0,0,1-.378.8c-.361.481-.777.92-1.15,1.394-.912,1.156-.849,1.29.445,1.849a1.835,1.835,0,0,0,2.209-.278c.513-.479,1.067-.914,1.607-1.363a2.8,2.8,0,0,1,.716-.534,1.076,1.076,0,0,1,.836-.033,2.422,2.422,0,0,1,.637.917,1.207,1.207,0,0,1-.021.593c-.187,1.488-.188,1.5,1.056,1.441a7.813,7.813,0,0,0,2.1-.169c2.777-.936,5.592-.48,8.365-.206a145.325,145.325,0,0,0,14.995,1.031q4.67-.024,9.337-.108c.276-.005.552-.009.827-.009A12.458,12.458,0,0,1,846.889,1004.284Zm30.2-46.728c-.764.473-1.519.96-2.294,1.413-2.244,1.314-4.52,2.576-6.741,3.929-5.471,3.333-10.677,7.094-16.355,10.1a2.381,2.381,0,0,0-.689.561.527.527,0,0,0-.045.5,21.293,21.293,0,0,0,1.824,1.984c1.633,1.48,3.325,2.893,4.97,4.358,2.691,2.4,5.357,4.828,8.045,7.233,2.09,1.871,4.169,3.755,6.3,5.579a38.581,38.581,0,0,1,5.145,5.034.532.532,0,0,0,.48.154.6.6,0,0,0,.3-.457c-.112-2-.345-3.993-.368-5.991-.058-4.609-.02-9.22-.02-13.827h.072q.077-9.021.15-18.039.009-1.052-.027-2.1c-.015-.376-.145-.567-.364-.567A.76.76,0,0,0,877.084,957.556ZM794.846,981.8a1.283,1.283,0,0,1,.425,1.355,4.8,4.8,0,0,1-.689,1.3c-1.589,2.185-3.136,4.407-4.829,6.507a5.724,5.724,0,0,0-1.073,4.792.4.4,0,0,0,.657.24c.308-.252.608-.513.908-.777,1.725-1.526,3.4-3.114,5.181-4.572a228.238,228.238,0,0,0,16.939-15.3c.211-.213.424-.427.623-.65a.692.692,0,0,0-.086-1.044c-.836-.551-1.676-1.1-2.531-1.615q-8.219-4.981-16.443-9.952c-1.882-1.141-3.745-2.315-5.624-3.465a.55.55,0,0,0-.853.452c-.01,3,0,6.01,0,9.016h-.028q0,1.2,0,2.4c0,2-.005,4.007.014,6.01,0,.131.184.278.311.377.044.034.217-.022.27-.086.5-.622.966-1.271,1.481-1.878a16.87,16.87,0,0,1,1.623-1.757,1.957,1.957,0,0,1,2.253-.013,1.739,1.739,0,0,1,.4,2.176,10,10,0,0,1-.635,1.018c-1.48,2.144-2.969,4.278-4.442,6.423a6.174,6.174,0,0,0-.914,1.537,5.408,5.408,0,0,0-.1,1.744.626.626,0,0,0,.368.421.548.548,0,0,0,.491-.118c.929-1.049,1.779-2.17,2.768-3.16a12.2,12.2,0,0,1,2.166-1.569,1.042,1.042,0,0,1,.56-.17A1.189,1.189,0,0,1,794.846,981.8Zm3.448-48.646a.814.814,0,0,0-.689,1.088c1.028,3.988,1.37,8.091,2.094,12.129a6.394,6.394,0,0,1-.516,4.378,3.958,3.958,0,0,0-.354,1.717c-.041,1.3.039,2.609.008,3.913a1.8,1.8,0,0,0,.917,1.738c2.034,1.287,4.036,2.62,6.052,3.939,4.7,3.076,9.359,6.21,14.107,9.21a54.365,54.365,0,0,1,7.8,5.6c1.107,1.011,2.331,1.9,3.512,2.822a.436.436,0,0,0,.707-.2,4.113,4.113,0,0,1,1.685-1.665,100.865,100.865,0,0,1,9.542-5.1c1.91-.878,3.742-1.93,5.577-2.961,4.734-2.652,9.055-5.939,13.567-8.932.752-.5,1.481-1.031,2.239-1.518a2.157,2.157,0,0,0,1.117-1.982c-.028-1.5-.008-3.011.026-4.515a16.42,16.42,0,0,1,.185-2.7,20.618,20.618,0,0,0,.058-6.577c-.2-1.584-.148-3.2-.209-4.8.946-1.954.5-4.149,1.071-6.175.2-.718-.175-1.149-.946-1.174-1.8-.061-3.605-.1-5.406-.077q-5.114.063-10.225.217a7.452,7.452,0,0,0-2.365.4,11.444,11.444,0,0,1-4.154.5q-9.484.009-18.969,0v-.058c-1.807,0-3.611-.006-5.417,0-2.609.01-5.218.092-7.826.03q-1.118-.026-2.235-.027A73.082,73.082,0,0,0,798.294,933.15Zm72.124,14.63c-.173,1.678-.326,3.36-.431,4.446,0,1.4-.025,2.192.015,2.986.013.25.144.65.543.41,1.53-.92,3.092-1.8,4.545-2.828,1.22-.865,1.179-1.4.1-2.308-.608-.513-1.217-1.03-1.841-1.519-.7-.553-1.424-1.084-2.148-1.61a.608.608,0,0,0-.35-.133C870.626,947.224,870.455,947.42,870.418,947.779ZM791.64,950.46a5.222,5.222,0,0,1,.475,1.079c.175.671.235,1.378.435,2.04a2.277,2.277,0,0,0,.636.975,1.277,1.277,0,0,0,.822.175c.1,0,.267-.289.261-.442-.055-1.294-.145-2.586-.222-3.88l.072-.005c-.036-.8-.019-1.6-.122-2.389-.109-.832.278-1.755-.429-2.48-.675.412-1.385.78-2.02,1.249-1.2.889-2.366,1.829-3.534,2.766a2.442,2.442,0,0,0-.577.671c-.08.143-.1.47-.011.54a17.586,17.586,0,0,0,1.946,1.366c.13.075.572-.14.689-.33a14.107,14.107,0,0,0,.583-1.354.508.508,0,0,1,.475-.247A.581.581,0,0,1,791.64,950.46Zm38.8-27.858c-.839.846-1.632,1.858-2.831,2.108-1.644.343-2.836,1.427-4.2,2.227a.7.7,0,0,0-.306.48c-.008.1.242.292.4.313,1.481.214,2.965.4,4.148.557,2.107-.175,3.9-.364,5.69-.464s3.6-.113,5.4-.168a5.606,5.606,0,0,0,.9-.062c.146-.028.4-.21.381-.261a.832.832,0,0,0-.312-.486q-4.073-2.241-8.167-4.439a.885.885,0,0,0-.422-.112A.942.942,0,0,0,830.438,922.6Zm1.147,53.114a4.638,4.638,0,0,1-2.042-2.519,15.722,15.722,0,0,1-1.239-4.936,2.051,2.051,0,0,0-1.672-2.137,13.037,13.037,0,0,1-3.455-1.766,2.419,2.419,0,0,1-.037-3.89,1.826,1.826,0,0,1,2.219-.29,14.233,14.233,0,0,0,1.33.679.658.658,0,0,0,.815-.621c-.034-.4-.135-.792-.154-1.189-.027-.6-.007-1.2-.007-1.806h-.075c0-.2,0-.4,0-.6-.1-3.026.416-2.841-2.639-3.749a8.913,8.913,0,0,1-1.382-.588c-2.61-1.292-3.037-3.479-1.022-5.538a32.332,32.332,0,0,1,2.731-2.354,21.015,21.015,0,0,1,1.938-1.429,1.838,1.838,0,0,0,.947-1.431c.111-1,.273-1.985.415-2.977a3.626,3.626,0,0,1,.213-1.171,1.7,1.7,0,0,1,.855-.723,1.067,1.067,0,0,1,1.188.707c.158.883.247,1.779.356,2.669.13,1.043.44,1.333,1.562,1.4a15.925,15.925,0,0,1,2.1.108,5.782,5.782,0,0,1,4.31,2.948,3.582,3.582,0,0,1,.365,1.427,1.319,1.319,0,0,1-1.843,1.287c-.63-.294-1.2-.724-1.816-1.045a6.93,6.93,0,0,0-1.9-.842c-1.768-.3-2.316-.083-2.2,1.722.026.4.036.8.053,1.2a2.892,2.892,0,0,0,2.258,3.085,9.674,9.674,0,0,1,4.5,3.4,8.7,8.7,0,0,1,1.9,4.979,4.73,4.73,0,0,1-1.428,3.831,8.606,8.606,0,0,1-3.286,2.061c-.755.266-1.537.466-2.273.777a.853.853,0,0,0-.376.718c.311,1.774.67,3.539,1.041,5.3.1.487.332.947.443,1.434a1.71,1.71,0,0,1-.7,1.847,1.934,1.934,0,0,1-1,.291A2.041,2.041,0,0,1,831.585,975.716Zm.427-19.692c.011,1.4.023,2.805.1,4.2.054.9.658,1.253,1.436.915a10.926,10.926,0,0,0,1.334-.68,1.388,1.388,0,0,0,.536-1.588,5.285,5.285,0,0,0-2.532-3.222,1.99,1.99,0,0,0-.575-.112C832.209,955.7,832.01,955.863,832.011,956.024Zm-5.751-7.44.555.553a3.845,3.845,0,0,0,.251-.689c.007-.039-.284-.134-.437-.2C826.506,948.358,826.384,948.472,826.26,948.584Z" transform="translate(-782 -918.148)"/>
</svg>